<svg xmlns="http://www.w3.org/2000/svg" viewBox="0 0 250.68 269.29"><defs><style>.cls-1{fill:#85a8ff;}</style></defs><g id="Capa_2" data-name="Capa 2"><g id="Capa_1-2" data-name="Capa 1"><path class="cls-1" d="M112.68,269.29h-5c-3.87-.73-7.75-1.39-11.61-2.19C63.88,260.4,48.81,232,62,202.34c8.64-19.46,24.14-32.77,41.1-44.65,3.41-2.38,5.18,0,6.71,2.55,4.74,8,9.39,16.1,14.19,24.09.66,1.11,2.6,2.75,2.89,2.56,1.54-1,3.26-2.36,3.9-4,.51-1.29-.24-3.22-.77-4.76-2.89-8.5-5.77-17-8.88-25.43-1.58-4.28-.56-7.08,3.15-9.8,6-4.41,11.74-9.26,17.39-14.16,1.15-1,1.4-3,2.06-4.61-1.79-.13-3.91-1-5.33-.28-7.35,3.46-14.67,7.06-21.72,11.09-3.61,2.07-6.56,2.31-10.17.21-8.49-4.93-17.13-9.59-25.73-14.33-1.75-1-3.52-2.32-5.37-2.49s-3.56,1-5.35,1.61c.73,1.41,1.14,3.21,2.26,4.17,6.46,5.52,13.1,10.82,19.64,16.23,2,1.65,3.89,3.41,6.28,5.51-1.83,1.46-3,2.53-4.35,3.45-10.26,7.12-20.77,13.9-30.74,21.39-16,12-30.46,25.43-38.53,44.36-.17.38-.69.62-1.5,1.31A31.19,31.19,0,0,1,21,212.43c-2.69-7.5-5.83-14.9-7.84-22.6C1.53,145.31-.62,99.81.14,54.1c.07-4.68,2.6-9.59,5-13.87,3.07-5.57,9.25-6.06,13.15-1,2.45,3.17,4.59,7.25,5.08,11.14C25.13,64.86,25.93,79.49,27.66,94a83.81,83.81,0,0,0,4.55,19.22c1.84,4.92,7.13,4.68,9.39-.17a35.58,35.58,0,0,0,3.1-10.44C47.56,79,50.06,55.34,53,31.72,54,22.93,56.08,14.24,62.46,7.5c5.7-6,11.84-5.13,15.78,2.11,3.57,6.59,3.41,13.69,3,20.93-1.07,20.11-1.89,40.23-2.73,60.35a13.6,13.6,0,0,0,.83,4.87c1.77,5.19,6,6.3,9.34,2.07a25.7,25.7,0,0,0,5-10.1C95.82,78,97.31,68.1,98.8,58.24,101,43.56,103.73,29,110,15.46a41,41,0,0,1,9.28-12.7c5.55-5,13.42-2.92,15.76,4.17a32.4,32.4,0,0,1,1.64,14.63c-3.57,22.83-8,45.52-11.64,68.34-1.13,7.13-.94,14.52-.78,21.79,0,1.77,2.34,3.49,3.6,5.24,1.63-1.42,4-2.53,4.78-4.32,4.28-9.92,8.36-19.93,12.14-30,5-13.43,9.9-26.95,18.73-38.44a49.27,49.27,0,0,1,11.79-11.27c7.55-4.89,14.18-1.12,15.19,7.86.83,7.33-.88,14.18-3.66,20.89-5.66,13.68-11.5,27.29-16.77,41.11-7.93,20.83-15.91,41.69-17.06,64.33-.4,8,.32,16,7.46,21.12,6.93,5,13.58,1,19.57-2.39,8.09-4.59,15.58-10.25,23.62-14.95,6.86-4,13.86-8.06,21.28-10.76,11.62-4.23,20.31-.32,25.71,10.22v1c-2,2.31-3.72,5-6,6.87-8.83,7.26-18.39,13.71-26.66,21.54-11,10.37-20.61,22.14-31.51,32.6-18.14,17.42-38.89,30.52-64.08,35.36C119.17,268.28,115.92,268.75,112.68,269.29Z"/></g></g></svg>